<mxfile host="app.diagrams.net" agent="Mozilla/5.0 (Windows NT 10.0; Win64; x64) AppleWebKit/537.36 (KHTML, like Gecko) Chrome/131.0.0.0 Safari/537.36" version="25.0.3">
  <diagram name="Page-1" id="PmlHZx9QspNQLkiXhl97">
    <mxGraphModel dx="2901" dy="1132" grid="1" gridSize="10" guides="1" tooltips="1" connect="1" arrows="1" fold="1" page="1" pageScale="1" pageWidth="827" pageHeight="1169" math="0" shadow="0">
      <root>
        <mxCell id="0" />
        <mxCell id="1" parent="0" />
        <mxCell id="IJDQ37QLxUtoS8MbMm2X-1" value="" style="rounded=0;whiteSpace=wrap;html=1;" vertex="1" parent="1">
          <mxGeometry x="-140" y="60" width="1070" height="550" as="geometry" />
        </mxCell>
        <mxCell id="IJDQ37QLxUtoS8MbMm2X-2" value="" style="rounded=0;whiteSpace=wrap;html=1;" vertex="1" parent="1">
          <mxGeometry x="700" y="100" width="160" height="200" as="geometry" />
        </mxCell>
        <mxCell id="IJDQ37QLxUtoS8MbMm2X-3" value="" style="rounded=0;whiteSpace=wrap;html=1;" vertex="1" parent="1">
          <mxGeometry x="470" y="120" width="160" height="200" as="geometry" />
        </mxCell>
        <mxCell id="IJDQ37QLxUtoS8MbMm2X-4" value="" style="rounded=0;whiteSpace=wrap;html=1;" vertex="1" parent="1">
          <mxGeometry x="100" y="200" width="160" height="300" as="geometry" />
        </mxCell>
        <mxCell id="IJDQ37QLxUtoS8MbMm2X-5" value="" style="rounded=0;whiteSpace=wrap;html=1;" vertex="1" parent="1">
          <mxGeometry x="280" y="200" width="160" height="300" as="geometry" />
        </mxCell>
        <mxCell id="IJDQ37QLxUtoS8MbMm2X-6" style="edgeStyle=orthogonalEdgeStyle;rounded=0;orthogonalLoop=1;jettySize=auto;html=1;entryX=0;entryY=0.5;entryDx=0;entryDy=0;" edge="1" parent="1" source="IJDQ37QLxUtoS8MbMm2X-7" target="IJDQ37QLxUtoS8MbMm2X-14">
          <mxGeometry relative="1" as="geometry" />
        </mxCell>
        <mxCell id="IJDQ37QLxUtoS8MbMm2X-7" value="Data model" style="rounded=1;whiteSpace=wrap;html=1;" vertex="1" parent="1">
          <mxGeometry x="120" y="230" width="120" height="60" as="geometry" />
        </mxCell>
        <mxCell id="IJDQ37QLxUtoS8MbMm2X-8" style="edgeStyle=orthogonalEdgeStyle;rounded=0;orthogonalLoop=1;jettySize=auto;html=1;" edge="1" parent="1" source="IJDQ37QLxUtoS8MbMm2X-9">
          <mxGeometry relative="1" as="geometry">
            <mxPoint x="300" y="340" as="targetPoint" />
          </mxGeometry>
        </mxCell>
        <mxCell id="IJDQ37QLxUtoS8MbMm2X-9" value="Class" style="rounded=1;whiteSpace=wrap;html=1;" vertex="1" parent="1">
          <mxGeometry x="120" y="310" width="120" height="60" as="geometry" />
        </mxCell>
        <mxCell id="IJDQ37QLxUtoS8MbMm2X-10" style="edgeStyle=orthogonalEdgeStyle;rounded=0;orthogonalLoop=1;jettySize=auto;html=1;entryX=0;entryY=0.5;entryDx=0;entryDy=0;" edge="1" parent="1" source="IJDQ37QLxUtoS8MbMm2X-11" target="IJDQ37QLxUtoS8MbMm2X-17">
          <mxGeometry relative="1" as="geometry" />
        </mxCell>
        <mxCell id="IJDQ37QLxUtoS8MbMm2X-11" value="Attribute" style="rounded=1;whiteSpace=wrap;html=1;" vertex="1" parent="1">
          <mxGeometry x="120" y="390" width="120" height="60" as="geometry" />
        </mxCell>
        <mxCell id="IJDQ37QLxUtoS8MbMm2X-12" value="Data exchange template" style="text;html=1;align=center;verticalAlign=middle;whiteSpace=wrap;rounded=0;" vertex="1" parent="1">
          <mxGeometry x="130" y="160" width="100" height="30" as="geometry" />
        </mxCell>
        <mxCell id="IJDQ37QLxUtoS8MbMm2X-13" style="edgeStyle=orthogonalEdgeStyle;rounded=0;orthogonalLoop=1;jettySize=auto;html=1;entryX=0;entryY=0.5;entryDx=0;entryDy=0;" edge="1" parent="1" source="IJDQ37QLxUtoS8MbMm2X-14" target="IJDQ37QLxUtoS8MbMm2X-33">
          <mxGeometry relative="1" as="geometry" />
        </mxCell>
        <mxCell id="IJDQ37QLxUtoS8MbMm2X-14" value="Database" style="rounded=1;whiteSpace=wrap;html=1;" vertex="1" parent="1">
          <mxGeometry x="300" y="230" width="120" height="60" as="geometry" />
        </mxCell>
        <mxCell id="IJDQ37QLxUtoS8MbMm2X-15" value="Field/table" style="rounded=1;whiteSpace=wrap;html=1;" vertex="1" parent="1">
          <mxGeometry x="300" y="310" width="120" height="60" as="geometry" />
        </mxCell>
        <mxCell id="IJDQ37QLxUtoS8MbMm2X-16" style="edgeStyle=orthogonalEdgeStyle;rounded=0;orthogonalLoop=1;jettySize=auto;html=1;entryX=0;entryY=0.75;entryDx=0;entryDy=0;" edge="1" parent="1" source="IJDQ37QLxUtoS8MbMm2X-17" target="IJDQ37QLxUtoS8MbMm2X-42">
          <mxGeometry relative="1" as="geometry" />
        </mxCell>
        <mxCell id="IJDQ37QLxUtoS8MbMm2X-17" value="Field/column" style="rounded=1;whiteSpace=wrap;html=1;" vertex="1" parent="1">
          <mxGeometry x="300" y="390" width="120" height="60" as="geometry" />
        </mxCell>
        <mxCell id="IJDQ37QLxUtoS8MbMm2X-18" value="Developed service" style="text;html=1;align=center;verticalAlign=middle;whiteSpace=wrap;rounded=0;" vertex="1" parent="1">
          <mxGeometry x="314" y="160" width="100" height="30" as="geometry" />
        </mxCell>
        <mxCell id="IJDQ37QLxUtoS8MbMm2X-19" value="" style="rounded=0;whiteSpace=wrap;html=1;" vertex="1" parent="1">
          <mxGeometry x="-100" y="200" width="160" height="300" as="geometry" />
        </mxCell>
        <mxCell id="IJDQ37QLxUtoS8MbMm2X-20" style="edgeStyle=orthogonalEdgeStyle;rounded=0;orthogonalLoop=1;jettySize=auto;html=1;entryX=0;entryY=0.5;entryDx=0;entryDy=0;" edge="1" parent="1" source="IJDQ37QLxUtoS8MbMm2X-21" target="IJDQ37QLxUtoS8MbMm2X-7">
          <mxGeometry relative="1" as="geometry" />
        </mxCell>
        <mxCell id="IJDQ37QLxUtoS8MbMm2X-21" value="Information model" style="rounded=1;whiteSpace=wrap;html=1;" vertex="1" parent="1">
          <mxGeometry x="-80" y="230" width="120" height="60" as="geometry" />
        </mxCell>
        <mxCell id="IJDQ37QLxUtoS8MbMm2X-22" style="edgeStyle=orthogonalEdgeStyle;rounded=0;orthogonalLoop=1;jettySize=auto;html=1;entryX=0;entryY=0.5;entryDx=0;entryDy=0;" edge="1" parent="1" source="IJDQ37QLxUtoS8MbMm2X-23" target="IJDQ37QLxUtoS8MbMm2X-9">
          <mxGeometry relative="1" as="geometry" />
        </mxCell>
        <mxCell id="IJDQ37QLxUtoS8MbMm2X-23" value="Entity" style="rounded=1;whiteSpace=wrap;html=1;" vertex="1" parent="1">
          <mxGeometry x="-80" y="310" width="120" height="60" as="geometry" />
        </mxCell>
        <mxCell id="IJDQ37QLxUtoS8MbMm2X-24" style="edgeStyle=orthogonalEdgeStyle;rounded=0;orthogonalLoop=1;jettySize=auto;html=1;entryX=1;entryY=0.5;entryDx=0;entryDy=0;" edge="1" parent="1" source="IJDQ37QLxUtoS8MbMm2X-26" target="IJDQ37QLxUtoS8MbMm2X-38">
          <mxGeometry relative="1" as="geometry">
            <mxPoint x="850" y="250" as="targetPoint" />
            <Array as="points">
              <mxPoint x="-20" y="570" />
              <mxPoint x="880" y="570" />
              <mxPoint x="880" y="250" />
            </Array>
          </mxGeometry>
        </mxCell>
        <mxCell id="IJDQ37QLxUtoS8MbMm2X-25" style="edgeStyle=orthogonalEdgeStyle;rounded=0;orthogonalLoop=1;jettySize=auto;html=1;entryX=0;entryY=0.5;entryDx=0;entryDy=0;" edge="1" parent="1" source="IJDQ37QLxUtoS8MbMm2X-26" target="IJDQ37QLxUtoS8MbMm2X-11">
          <mxGeometry relative="1" as="geometry" />
        </mxCell>
        <mxCell id="IJDQ37QLxUtoS8MbMm2X-26" value="Attribute" style="rounded=1;whiteSpace=wrap;html=1;" vertex="1" parent="1">
          <mxGeometry x="-80" y="390" width="120" height="60" as="geometry" />
        </mxCell>
        <mxCell id="IJDQ37QLxUtoS8MbMm2X-27" value="Clinical" style="text;html=1;align=center;verticalAlign=middle;whiteSpace=wrap;rounded=0;" vertex="1" parent="1">
          <mxGeometry x="-70" y="160" width="100" height="30" as="geometry" />
        </mxCell>
        <mxCell id="IJDQ37QLxUtoS8MbMm2X-28" style="edgeStyle=orthogonalEdgeStyle;rounded=0;orthogonalLoop=1;jettySize=auto;html=1;entryX=0.5;entryY=1;entryDx=0;entryDy=0;" edge="1" parent="1" source="IJDQ37QLxUtoS8MbMm2X-29" target="IJDQ37QLxUtoS8MbMm2X-31">
          <mxGeometry relative="1" as="geometry" />
        </mxCell>
        <mxCell id="IJDQ37QLxUtoS8MbMm2X-29" value="CodeSystems" style="rounded=1;whiteSpace=wrap;html=1;" vertex="1" parent="1">
          <mxGeometry x="720" y="430" width="120" height="60" as="geometry" />
        </mxCell>
        <mxCell id="IJDQ37QLxUtoS8MbMm2X-30" style="edgeStyle=orthogonalEdgeStyle;rounded=0;orthogonalLoop=1;jettySize=auto;html=1;entryX=0.5;entryY=1;entryDx=0;entryDy=0;" edge="1" parent="1" source="IJDQ37QLxUtoS8MbMm2X-31" target="IJDQ37QLxUtoS8MbMm2X-38">
          <mxGeometry relative="1" as="geometry" />
        </mxCell>
        <mxCell id="IJDQ37QLxUtoS8MbMm2X-31" value="Terminology" style="rounded=1;whiteSpace=wrap;html=1;" vertex="1" parent="1">
          <mxGeometry x="720" y="320" width="120" height="60" as="geometry" />
        </mxCell>
        <mxCell id="IJDQ37QLxUtoS8MbMm2X-32" style="edgeStyle=orthogonalEdgeStyle;rounded=0;orthogonalLoop=1;jettySize=auto;html=1;entryX=0.5;entryY=1;entryDx=0;entryDy=0;" edge="1" parent="1" source="IJDQ37QLxUtoS8MbMm2X-33" target="IJDQ37QLxUtoS8MbMm2X-34">
          <mxGeometry relative="1" as="geometry" />
        </mxCell>
        <mxCell id="IJDQ37QLxUtoS8MbMm2X-33" value="Module" style="rounded=1;whiteSpace=wrap;html=1;" vertex="1" parent="1">
          <mxGeometry x="490" y="230" width="120" height="60" as="geometry" />
        </mxCell>
        <mxCell id="IJDQ37QLxUtoS8MbMm2X-34" value="Information system" style="rounded=1;whiteSpace=wrap;html=1;" vertex="1" parent="1">
          <mxGeometry x="490" y="140" width="120" height="60" as="geometry" />
        </mxCell>
        <mxCell id="IJDQ37QLxUtoS8MbMm2X-35" value="Business" style="text;html=1;align=center;verticalAlign=middle;whiteSpace=wrap;rounded=0;" vertex="1" parent="1">
          <mxGeometry x="730" y="70" width="100" height="30" as="geometry" />
        </mxCell>
        <mxCell id="IJDQ37QLxUtoS8MbMm2X-36" value="Business glossary" style="rounded=1;whiteSpace=wrap;html=1;" vertex="1" parent="1">
          <mxGeometry x="720" y="120" width="120" height="60" as="geometry" />
        </mxCell>
        <mxCell id="IJDQ37QLxUtoS8MbMm2X-37" style="edgeStyle=orthogonalEdgeStyle;rounded=0;orthogonalLoop=1;jettySize=auto;html=1;" edge="1" parent="1" source="IJDQ37QLxUtoS8MbMm2X-38" target="IJDQ37QLxUtoS8MbMm2X-36">
          <mxGeometry relative="1" as="geometry" />
        </mxCell>
        <mxCell id="IJDQ37QLxUtoS8MbMm2X-38" value="Glossary terms" style="rounded=1;whiteSpace=wrap;html=1;" vertex="1" parent="1">
          <mxGeometry x="720" y="220" width="120" height="60" as="geometry" />
        </mxCell>
        <mxCell id="IJDQ37QLxUtoS8MbMm2X-39" style="edgeStyle=orthogonalEdgeStyle;rounded=0;orthogonalLoop=1;jettySize=auto;html=1;" edge="1" parent="1" source="IJDQ37QLxUtoS8MbMm2X-42" target="IJDQ37QLxUtoS8MbMm2X-29">
          <mxGeometry relative="1" as="geometry" />
        </mxCell>
        <mxCell id="IJDQ37QLxUtoS8MbMm2X-40" style="edgeStyle=orthogonalEdgeStyle;rounded=0;orthogonalLoop=1;jettySize=auto;html=1;entryX=0.5;entryY=1;entryDx=0;entryDy=0;" edge="1" parent="1" source="IJDQ37QLxUtoS8MbMm2X-42" target="IJDQ37QLxUtoS8MbMm2X-33">
          <mxGeometry relative="1" as="geometry" />
        </mxCell>
        <mxCell id="IJDQ37QLxUtoS8MbMm2X-41" style="edgeStyle=orthogonalEdgeStyle;rounded=0;orthogonalLoop=1;jettySize=auto;html=1;entryX=0;entryY=0.5;entryDx=0;entryDy=0;exitX=0.5;exitY=0;exitDx=0;exitDy=0;" edge="1" parent="1" source="IJDQ37QLxUtoS8MbMm2X-42" target="IJDQ37QLxUtoS8MbMm2X-31">
          <mxGeometry relative="1" as="geometry">
            <Array as="points">
              <mxPoint x="550" y="350" />
            </Array>
          </mxGeometry>
        </mxCell>
        <mxCell id="IJDQ37QLxUtoS8MbMm2X-42" value="ValueSets" style="rounded=1;whiteSpace=wrap;html=1;" vertex="1" parent="1">
          <mxGeometry x="490" y="430" width="120" height="60" as="geometry" />
        </mxCell>
        <mxCell id="IJDQ37QLxUtoS8MbMm2X-43" value="Technical" style="text;html=1;align=center;verticalAlign=middle;whiteSpace=wrap;rounded=0;" vertex="1" parent="1">
          <mxGeometry x="500" y="90" width="100" height="30" as="geometry" />
        </mxCell>
      </root>
    </mxGraphModel>
  </diagram>
</mxfile>
